<mxfile host="app.diagrams.net" modified="2023-07-21T11:42:38.090Z" agent="Mozilla/5.0 (Windows NT 10.0; Win64; x64) AppleWebKit/537.36 (KHTML, like Gecko) Chrome/111.0.0.0 Safari/537.36" etag="U8xqeiSzraJ-CvfAGTJG" version="21.6.3" type="github" pages="2">
  <diagram id="txx3bHHGOBFFJghas2Wa" name="Атрибуты ссылочных типов">
    <mxGraphModel dx="1434" dy="1623" grid="0" gridSize="10" guides="1" tooltips="1" connect="1" arrows="1" fold="1" page="1" pageScale="1" pageWidth="1169" pageHeight="827" math="0" shadow="0">
      <root>
        <mxCell id="0" />
        <mxCell id="1" parent="0" />
        <mxCell id="uhG8UHSYETovZm9aPu19-5" value="" style="edgeStyle=orthogonalEdgeStyle;rounded=0;orthogonalLoop=1;jettySize=auto;html=1;fontColor=#66FF66;" parent="1" source="AzMbnHq6-pzzuQCgAMzn-20" target="uhG8UHSYETovZm9aPu19-4" edge="1">
          <mxGeometry relative="1" as="geometry" />
        </mxCell>
        <mxCell id="AzMbnHq6-pzzuQCgAMzn-20" value="Начало" style="rounded=1;whiteSpace=wrap;html=1;arcSize=32;" parent="1" vertex="1">
          <mxGeometry x="481.5" width="120" height="60" as="geometry" />
        </mxCell>
        <mxCell id="AzMbnHq6-pzzuQCgAMzn-21" value="Конец" style="rounded=1;whiteSpace=wrap;html=1;arcSize=32;" parent="1" vertex="1">
          <mxGeometry x="440" y="739" width="120" height="60" as="geometry" />
        </mxCell>
        <mxCell id="E1AUo7WxwaXKQ3Ysj724-5" value="один тип" style="edgeStyle=orthogonalEdgeStyle;rounded=0;orthogonalLoop=1;jettySize=auto;html=1;exitX=0;exitY=0.5;exitDx=0;exitDy=0;" edge="1" parent="1" source="uhG8UHSYETovZm9aPu19-4" target="E1AUo7WxwaXKQ3Ysj724-4">
          <mxGeometry x="-0.6279" relative="1" as="geometry">
            <mxPoint x="411.5" y="200" as="sourcePoint" />
            <mxPoint as="offset" />
          </mxGeometry>
        </mxCell>
        <mxCell id="E1AUo7WxwaXKQ3Ysj724-11" value="составной тип" style="edgeStyle=orthogonalEdgeStyle;rounded=0;orthogonalLoop=1;jettySize=auto;html=1;" edge="1" parent="1" source="uhG8UHSYETovZm9aPu19-4" target="E1AUo7WxwaXKQ3Ysj724-10">
          <mxGeometry x="-0.7263" relative="1" as="geometry">
            <mxPoint as="offset" />
          </mxGeometry>
        </mxCell>
        <mxCell id="uhG8UHSYETovZm9aPu19-4" value="Составной ли тип свойства в 1С?" style="rhombus;whiteSpace=wrap;html=1;rounded=0;arcSize=0;fontStyle=0;verticalAlign=middle;horizontal=1;" parent="1" vertex="1">
          <mxGeometry x="430" y="140" width="223" height="90" as="geometry" />
        </mxCell>
        <mxCell id="uhG8UHSYETovZm9aPu19-6" value="&lt;h1&gt;&lt;font style=&quot;font-size: 18px;&quot; color=&quot;#0000ff&quot;&gt;MetaType&amp;nbsp;&lt;/font&gt;&lt;/h1&gt;&lt;p&gt;&lt;font color=&quot;#4d4d4d&quot;&gt;Можно указать типом:&lt;/font&gt;&lt;/p&gt;&lt;p&gt;&lt;/p&gt;&lt;ul&gt;&lt;li&gt;&lt;font color=&quot;#4d4d4d&quot;&gt;Type&lt;/font&gt;&lt;/li&gt;&lt;li&gt;&lt;font color=&quot;#4d4d4d&quot;&gt;string Meta Type and Name (MetaTN)*&lt;/font&gt;&lt;/li&gt;&lt;/ul&gt;&lt;font color=&quot;#4d4d4d&quot;&gt;*Это случай, когда Meta зарегистрирован в БД, но нет модели.в коде&lt;br&gt;&lt;/font&gt;&lt;p&gt;&lt;/p&gt;" style="text;html=1;strokeColor=none;fillColor=none;spacing=5;spacingTop=-20;whiteSpace=wrap;overflow=hidden;rounded=0;fontColor=#66FF66;" parent="1" vertex="1">
          <mxGeometry x="17" width="410" height="140" as="geometry" />
        </mxCell>
        <mxCell id="jhGRHMNOVWTFbntyYFQe-2" style="edgeStyle=orthogonalEdgeStyle;rounded=0;orthogonalLoop=1;jettySize=auto;html=1;exitX=0.5;exitY=1;exitDx=0;exitDy=0;" parent="1" edge="1">
          <mxGeometry relative="1" as="geometry">
            <mxPoint x="979" y="570" as="sourcePoint" />
            <mxPoint x="979" y="570" as="targetPoint" />
          </mxGeometry>
        </mxCell>
        <mxCell id="E1AUo7WxwaXKQ3Ysj724-7" value="Примитивный" style="edgeStyle=orthogonalEdgeStyle;rounded=0;orthogonalLoop=1;jettySize=auto;html=1;" edge="1" parent="1" source="E1AUo7WxwaXKQ3Ysj724-4" target="E1AUo7WxwaXKQ3Ysj724-6">
          <mxGeometry relative="1" as="geometry" />
        </mxCell>
        <mxCell id="E1AUo7WxwaXKQ3Ysj724-9" value="Ссылочный" style="edgeStyle=orthogonalEdgeStyle;rounded=0;orthogonalLoop=1;jettySize=auto;html=1;exitX=1;exitY=0.5;exitDx=0;exitDy=0;" edge="1" parent="1" source="E1AUo7WxwaXKQ3Ysj724-4" target="E1AUo7WxwaXKQ3Ysj724-8">
          <mxGeometry relative="1" as="geometry" />
        </mxCell>
        <mxCell id="E1AUo7WxwaXKQ3Ysj724-4" value="Простой/Ссылочный?" style="rhombus;whiteSpace=wrap;html=1;rounded=0;arcSize=0;fontStyle=0;" vertex="1" parent="1">
          <mxGeometry x="220" y="280" width="180" height="80" as="geometry" />
        </mxCell>
        <mxCell id="E1AUo7WxwaXKQ3Ysj724-23" style="edgeStyle=orthogonalEdgeStyle;rounded=0;orthogonalLoop=1;jettySize=auto;html=1;exitX=0.5;exitY=1;exitDx=0;exitDy=0;entryX=0.5;entryY=0;entryDx=0;entryDy=0;" edge="1" parent="1" source="E1AUo7WxwaXKQ3Ysj724-6" target="AzMbnHq6-pzzuQCgAMzn-21">
          <mxGeometry relative="1" as="geometry">
            <Array as="points">
              <mxPoint x="120" y="680" />
              <mxPoint x="500" y="680" />
            </Array>
          </mxGeometry>
        </mxCell>
        <mxCell id="E1AUo7WxwaXKQ3Ysj724-6" value="Тип свойства модели: простой" style="whiteSpace=wrap;html=1;rounded=0;arcSize=0;fontStyle=0;" vertex="1" parent="1">
          <mxGeometry x="60" y="400" width="120" height="60" as="geometry" />
        </mxCell>
        <mxCell id="E1AUo7WxwaXKQ3Ysj724-16" value="" style="edgeStyle=orthogonalEdgeStyle;rounded=0;orthogonalLoop=1;jettySize=auto;html=1;exitX=0.5;exitY=1;exitDx=0;exitDy=0;" edge="1" parent="1" source="E1AUo7WxwaXKQ3Ysj724-8" target="E1AUo7WxwaXKQ3Ysj724-15">
          <mxGeometry relative="1" as="geometry">
            <mxPoint x="511.5" y="480" as="sourcePoint" />
          </mxGeometry>
        </mxCell>
        <mxCell id="E1AUo7WxwaXKQ3Ysj724-8" value="Тип свойства модели &lt;b&gt;&lt;font color=&quot;#009900&quot;&gt;IRefInst&lt;/font&gt;&lt;/b&gt;" style="whiteSpace=wrap;html=1;rounded=0;arcSize=0;fontStyle=0;" vertex="1" parent="1">
          <mxGeometry x="440" y="400" width="120" height="60" as="geometry" />
        </mxCell>
        <mxCell id="E1AUo7WxwaXKQ3Ysj724-14" value="более одного" style="edgeStyle=orthogonalEdgeStyle;rounded=0;orthogonalLoop=1;jettySize=auto;html=1;exitX=0.5;exitY=1;exitDx=0;exitDy=0;" edge="1" parent="1" source="E1AUo7WxwaXKQ3Ysj724-10" target="E1AUo7WxwaXKQ3Ysj724-13">
          <mxGeometry relative="1" as="geometry">
            <mxPoint x="871.5" y="380" as="sourcePoint" />
          </mxGeometry>
        </mxCell>
        <mxCell id="E1AUo7WxwaXKQ3Ysj724-28" value="один тип" style="edgeStyle=orthogonalEdgeStyle;rounded=0;orthogonalLoop=1;jettySize=auto;html=1;exitX=0;exitY=0.5;exitDx=0;exitDy=0;entryX=1;entryY=0.5;entryDx=0;entryDy=0;" edge="1" parent="1" source="E1AUo7WxwaXKQ3Ysj724-10" target="E1AUo7WxwaXKQ3Ysj724-26">
          <mxGeometry relative="1" as="geometry" />
        </mxCell>
        <mxCell id="E1AUo7WxwaXKQ3Ysj724-10" value="Присваиваться в решении будет:" style="rhombus;whiteSpace=wrap;html=1;rounded=0;arcSize=0;fontStyle=0;verticalAlign=middle;horizontal=1;" vertex="1" parent="1">
          <mxGeometry x="790" y="280" width="223" height="81" as="geometry" />
        </mxCell>
        <mxCell id="E1AUo7WxwaXKQ3Ysj724-24" style="edgeStyle=orthogonalEdgeStyle;rounded=0;orthogonalLoop=1;jettySize=auto;html=1;exitX=0.75;exitY=1;exitDx=0;exitDy=0;entryX=0.5;entryY=0;entryDx=0;entryDy=0;" edge="1" parent="1" source="E1AUo7WxwaXKQ3Ysj724-13" target="AzMbnHq6-pzzuQCgAMzn-21">
          <mxGeometry relative="1" as="geometry">
            <Array as="points">
              <mxPoint x="932" y="680" />
              <mxPoint x="500" y="680" />
            </Array>
          </mxGeometry>
        </mxCell>
        <mxCell id="E1AUo7WxwaXKQ3Ysj724-13" value="Тип свойства модели &lt;b&gt;&lt;font color=&quot;#009900&quot;&gt;object&lt;/font&gt;&lt;/b&gt;" style="whiteSpace=wrap;html=1;rounded=0;arcSize=0;fontStyle=0;" vertex="1" parent="1">
          <mxGeometry x="841.5" y="450" width="120" height="60" as="geometry" />
        </mxCell>
        <mxCell id="E1AUo7WxwaXKQ3Ysj724-17" value="вручную" style="edgeStyle=orthogonalEdgeStyle;rounded=0;orthogonalLoop=1;jettySize=auto;html=1;exitX=0.5;exitY=1;exitDx=0;exitDy=0;entryX=0.5;entryY=0;entryDx=0;entryDy=0;" edge="1" parent="1" source="E1AUo7WxwaXKQ3Ysj724-15" target="AzMbnHq6-pzzuQCgAMzn-21">
          <mxGeometry x="-0.5973" relative="1" as="geometry">
            <mxPoint as="offset" />
          </mxGeometry>
        </mxCell>
        <mxCell id="E1AUo7WxwaXKQ3Ysj724-19" value="автоматически" style="edgeStyle=orthogonalEdgeStyle;rounded=0;orthogonalLoop=1;jettySize=auto;html=1;" edge="1" parent="1" source="E1AUo7WxwaXKQ3Ysj724-15" target="E1AUo7WxwaXKQ3Ysj724-18">
          <mxGeometry x="-0.2308" relative="1" as="geometry">
            <mxPoint as="offset" />
          </mxGeometry>
        </mxCell>
        <mxCell id="E1AUo7WxwaXKQ3Ysj724-15" value="Создание IRefInst:" style="rhombus;whiteSpace=wrap;html=1;rounded=0;arcSize=0;fontStyle=0;" vertex="1" parent="1">
          <mxGeometry x="400" y="510" width="200" height="80" as="geometry" />
        </mxCell>
        <mxCell id="E1AUo7WxwaXKQ3Ysj724-20" style="edgeStyle=orthogonalEdgeStyle;rounded=0;orthogonalLoop=1;jettySize=auto;html=1;exitX=0.5;exitY=1;exitDx=0;exitDy=0;entryX=0.5;entryY=0;entryDx=0;entryDy=0;" edge="1" parent="1" source="E1AUo7WxwaXKQ3Ysj724-18" target="AzMbnHq6-pzzuQCgAMzn-21">
          <mxGeometry relative="1" as="geometry" />
        </mxCell>
        <mxCell id="E1AUo7WxwaXKQ3Ysj724-22" value="Присвоение только в обработчике" style="text;html=1;strokeColor=#9673a6;fillColor=#e1d5e7;align=center;verticalAlign=middle;whiteSpace=wrap;rounded=0;fontColor=#f90101;" vertex="1" parent="1">
          <mxGeometry x="770" y="500" width="140" height="40" as="geometry" />
        </mxCell>
        <mxCell id="E1AUo7WxwaXKQ3Ysj724-27" value="" style="group" vertex="1" connectable="0" parent="1">
          <mxGeometry x="540" y="240" width="120" height="60" as="geometry" />
        </mxCell>
        <mxCell id="E1AUo7WxwaXKQ3Ysj724-30" value="" style="group" vertex="1" connectable="0" parent="E1AUo7WxwaXKQ3Ysj724-27">
          <mxGeometry width="120" height="60" as="geometry" />
        </mxCell>
        <mxCell id="E1AUo7WxwaXKQ3Ysj724-26" value="Применить атрибут" style="rounded=0;whiteSpace=wrap;html=1;" vertex="1" parent="E1AUo7WxwaXKQ3Ysj724-30">
          <mxGeometry width="120" height="40" as="geometry" />
        </mxCell>
        <mxCell id="E1AUo7WxwaXKQ3Ysj724-25" value="MultyType" style="text;html=1;strokeColor=#d6b656;fillColor=#000000;align=center;verticalAlign=middle;whiteSpace=wrap;rounded=0;fontColor=#66FF66;" vertex="1" parent="E1AUo7WxwaXKQ3Ysj724-30">
          <mxGeometry y="30" width="60" height="30" as="geometry" />
        </mxCell>
        <mxCell id="E1AUo7WxwaXKQ3Ysj724-29" style="edgeStyle=orthogonalEdgeStyle;rounded=0;orthogonalLoop=1;jettySize=auto;html=1;exitX=0;exitY=0.5;exitDx=0;exitDy=0;entryX=0.5;entryY=0;entryDx=0;entryDy=0;" edge="1" parent="1" source="E1AUo7WxwaXKQ3Ysj724-26" target="E1AUo7WxwaXKQ3Ysj724-4">
          <mxGeometry relative="1" as="geometry" />
        </mxCell>
        <mxCell id="E1AUo7WxwaXKQ3Ysj724-31" value="" style="group" vertex="1" connectable="0" parent="1">
          <mxGeometry x="147" y="531.5" width="123" height="55.5" as="geometry" />
        </mxCell>
        <mxCell id="E1AUo7WxwaXKQ3Ysj724-18" value="Применить атрибут" style="whiteSpace=wrap;html=1;rounded=0;arcSize=0;fontStyle=0;" vertex="1" parent="E1AUo7WxwaXKQ3Ysj724-31">
          <mxGeometry x="3" width="120" height="37" as="geometry" />
        </mxCell>
        <mxCell id="uhG8UHSYETovZm9aPu19-1" value="RefMeta" style="text;html=1;strokeColor=#d6b656;fillColor=#000000;align=center;verticalAlign=middle;whiteSpace=wrap;rounded=0;fontColor=#66FF66;movable=1;resizable=1;rotatable=1;deletable=1;editable=1;locked=0;connectable=1;" parent="E1AUo7WxwaXKQ3Ysj724-31" vertex="1">
          <mxGeometry y="25.5" width="60" height="30" as="geometry" />
        </mxCell>
      </root>
    </mxGraphModel>
  </diagram>
  <diagram id="3n6pRKRFKJ4w30OZTfqp" name="Дерево описания свойства">
    <mxGraphModel dx="1434" dy="796" grid="1" gridSize="10" guides="1" tooltips="1" connect="1" arrows="1" fold="1" page="1" pageScale="1" pageWidth="1169" pageHeight="1654" math="0" shadow="0">
      <root>
        <mxCell id="0" />
        <mxCell id="1" parent="0" />
        <mxCell id="WCyqvzF-YyRtlKxS0fL7-1" value="Начало" style="ellipse;whiteSpace=wrap;html=1;" vertex="1" parent="1">
          <mxGeometry x="525" y="10" width="120" height="60" as="geometry" />
        </mxCell>
      </root>
    </mxGraphModel>
  </diagram>
</mxfile>
